<?xml version="1.0" standalone="no"?><!DOCTYPE svg PUBLIC "-//W3C//DTD SVG 1.1//EN" "http://www.w3.org/Graphics/SVG/1.1/DTD/svg11.dtd"><svg t="1766382720157" class="icon" viewBox="0 0 1024 1024" version="1.1" xmlns="http://www.w3.org/2000/svg" p-id="5311" xmlns:xlink="http://www.w3.org/1999/xlink" width="200" height="200"><path d="M394.304 493.952L320.832 567.424V205.248H494.08a460.8 460.8 0 0 1 162.496 26.432l-54.592 54.592a378.944 378.944 0 0 0-109.696-14.528H394.304z m342.272-70.784a327.104 327.104 0 0 1 12.096 89.6 247.68 247.68 0 0 1-68.672 187.2 265.856 265.856 0 0 1-192 66.112H394.304v-0.64l-67.2 67.2h160a341.376 341.376 0 0 0 246.528-88.192A307.904 307.904 0 0 0 825.6 511.04a368.384 368.384 0 0 0-28.16-148.8zM174.208 895.04l-45.248-45.248L849.792 128.96l45.248 45.248z" fill="#212121" p-id="5312"></path></svg>